<svg xmlns="http://www.w3.org/2000/svg" role="img" viewBox="723.42 270.42 1486.16 1302.16"><title>COVID Green logo</title><g fill="none" fill-rule="evenodd"><path fill="#FFF" d="M0 0h2853v1884H0z"/><path fill="#00746D" fill-rule="nonzero" d="M891.67 1264.136c23.65067 0 44.13267-3.822 61.446-11.466 17.31333-7.644 31.71933-18.97933 43.218-34.006l-26.264-27.636c-1.43733-1.43733-2.94-2.45-4.508-3.038-1.568-.588-3.136-.882-4.704-.882-1.96 0-3.85467.42467-5.684 1.274-1.82933.84933-3.528 1.92733-5.096 3.234-3.92 3.39733-7.80733 6.23933-11.662 8.526-3.85467 2.28667-7.90533 4.14867-12.152 5.586-4.24667 1.43733-8.85267 2.45-13.818 3.038-4.96533.588-10.45333.882-16.464.882-10.45333 0-20.25333-2.02533-29.4-6.076s-17.15-9.96333-24.01-17.738c-6.86-7.77467-12.28267-17.346-16.268-28.714-3.98533-11.368-5.978-24.36933-5.978-39.004 0-13.98133 1.99267-26.59067 5.978-37.828 3.98533-11.23733 9.53867-20.80867 16.66-28.714 7.12133-7.90533 15.64733-13.98133 25.578-18.228 9.93067-4.24667 20.90667-6.37 32.928-6.37 6.92533 0 12.96867.52267 18.13 1.568 5.16133 1.04533 9.66933 2.31933 13.524 3.822 3.85467 1.50267 7.18667 3.136 9.996 4.9 2.80933 1.764 5.39 3.39733 7.742 4.9 2.352 1.50267 4.57333 2.77667 6.664 3.822 2.09067 1.04533 4.312 1.568 6.664 1.568 3.528 0 6.272-.75133 8.232-2.254 1.96-1.50267 3.65867-3.16867 5.096-4.998l22.344-29.988c-5.35733-5.61867-11.49867-10.74733-18.424-15.386-6.92533-4.63867-14.504-8.624-22.736-11.956-8.232-3.332-17.08467-5.94533-26.558-7.84-9.47333-1.89467-19.56733-2.842-30.282-2.842-22.08267 0-42.27067 3.59333-60.564 10.78-18.29333 7.18667-34.006 17.248-47.138 30.184-13.132 12.936-23.35667 28.322-30.674 46.158-7.31733 17.836-10.976 37.40333-10.976 58.702 0 20.90667 3.20133 40.278 9.604 58.114 6.40267 17.836 15.582 33.25467 27.538 46.256 11.956 13.00133 26.52533 23.19333 43.708 30.576 17.18267 7.38267 36.61933 11.074 58.31 11.074zm313.42 0c22.21333 0 42.434-3.724 60.662-11.172s33.81-17.738 46.746-30.87c12.936-13.132 22.96467-28.58333 30.086-46.354 7.12133-17.77067 10.682-36.97867 10.682-57.624 0-20.51467-3.56067-39.65733-10.682-57.428-7.12133-17.77067-17.15-33.18933-30.086-46.256-12.936-13.06667-28.518-23.35667-46.746-30.87s-38.44867-11.27-60.662-11.27-42.46667 3.724-60.76 11.172c-18.29333 7.448-33.94067 17.70533-46.942 30.772-13.00133 13.06667-23.06267 28.48533-30.184 46.256s-10.682 36.97867-10.682 57.624 3.56067 39.85333 10.682 57.624c7.12133 17.77067 17.18267 33.222 30.184 46.354 13.00133 13.132 28.64867 23.422 46.942 30.87s38.54667 11.172 60.76 11.172zm0-54.88c-12.80533 0-24.206-2.058-34.202-6.174-9.996-4.116-18.424-10.094-25.284-17.934-6.86-7.84-12.11933-17.41133-15.778-28.714-3.65867-11.30267-5.488-24.07533-5.488-38.318 0-14.112 1.82933-26.81933 5.488-38.122 3.65867-11.30267 8.918-20.874 15.778-28.714 6.86-7.84 15.288-13.85067 25.284-18.032 9.996-4.18133 21.39667-6.272 34.202-6.272 12.67467 0 23.97733 2.09067 33.908 6.272 9.93067 4.18133 18.326 10.192 25.186 18.032 6.86 7.84 12.11933 17.41133 15.778 28.714 3.65867 11.30267 5.488 24.01 5.488 38.122 0 14.24267-1.82933 27.01533-5.488 38.318-3.65867 11.30267-8.918 20.874-15.778 28.714-6.86 7.84-15.25533 13.818-25.186 17.934-9.93067 4.116-21.23333 6.174-33.908 6.174zM1569.078 1261l114.464-285.572h-53.704c-5.488 0-10.12667 1.47-13.916 4.41-3.78933 2.94-6.33733 6.23933-7.644 9.898l-54.88 152.88c-2.352 6.664-4.73667 13.916-7.154 21.756-2.41733 7.84-4.54067 16.072-6.37 24.696-2.22133-8.624-4.606-16.856-7.154-24.696s-5.06333-15.092-7.546-21.756l-55.272-152.88c-1.568-4.312-4.18133-7.77467-7.84-10.388-3.65867-2.61333-8.36267-3.92-14.112-3.92h-53.312L1509.102 1261h59.976zm255.404 0V975.428h-66.64V1261h66.64zm208.756 0c22.21333 0 42.434-3.56067 60.662-10.682s33.81-17.052 46.746-29.792c12.936-12.74 22.96467-27.832 30.086-45.276 7.12133-17.444 10.682-36.48867 10.682-57.134 0-20.51467-3.56067-39.494-10.682-56.938-7.12133-17.444-17.15-32.50333-30.086-45.178-12.936-12.67467-28.518-22.60533-46.746-29.792-18.228-7.18667-38.44867-10.78-60.662-10.78h-110.936V1261h110.936zm0-50.96h-44.296v-183.652h44.296c12.67467 0 23.97733 2.12333 33.908 6.37 9.93067 4.24667 18.326 10.32267 25.186 18.228 6.86 7.90533 12.11933 17.542 15.778 28.91 3.65867 11.368 5.488 24.108 5.488 38.22 0 14.24267-1.82933 27.048-5.488 38.416-3.65867 11.368-8.918 21.00467-15.778 28.91-6.86 7.90533-15.25533 13.98133-25.186 18.228-9.93067 4.24667-21.23333 6.37-33.908 6.37zM845.71728 1545.016c7.476 0 14.406-.399 20.79-1.197 6.384-.798 12.369-2.016 17.955-3.654 5.586-1.638 10.836-3.675 15.75-6.111s9.639-5.292 14.175-8.568v-69.3h-55.44v13.86c0 1.344.483 2.478 1.449 3.402.966.924 2.247 1.386 3.843 1.386h27.972v39.816c-3.192 1.68-6.384 3.171-9.576 4.473s-6.594 2.415-10.206 3.339c-3.612.924-7.455 1.617-11.529 2.079-4.074.462-8.547.693-13.419.693-9.744 0-18.648-1.638-26.712-4.914s-15.036-8.022-20.916-14.238c-5.88-6.216-10.437-13.797-13.671-22.743-3.234-8.946-4.851-19.131-4.851-30.555 0-10.92 1.554-20.769 4.662-29.547 3.108-8.778 7.56-16.254 13.356-22.428 5.796-6.174 12.81-10.92 21.042-14.238 8.232-3.318 17.43-4.977 27.594-4.977 6.972 0 12.999.546 18.081 1.638 5.082 1.092 9.492 2.415 13.23 3.969 3.738 1.554 6.909 3.171 9.513 4.851 2.604 1.68 4.956 3.108 7.056 4.284 1.596.924 3.066 1.386 4.41 1.386 2.268 0 4.116-1.134 5.544-3.402l6.93-11.088c-3.864-3.528-8.022-6.699-12.474-9.513s-9.303-5.208-14.553-7.182c-5.25-1.974-10.941-3.486-17.073-4.536-6.132-1.05-12.768-1.575-19.908-1.575-14.112 0-26.859 2.226-38.241 6.678-11.382 4.452-21.084 10.731-29.106 18.837-8.022 8.106-14.196 17.829-18.522 29.169-4.326 11.34-6.489 23.898-6.489 37.674 0 13.608 2.205 26.082 6.615 37.422 4.41 11.34 10.563 21.063 18.459 29.169 7.896 8.106 17.304 14.406 28.224 18.9 10.92 4.494 22.932 6.741 36.036 6.741zm284.92029-2.016v-75.348h18.522c3.36 0 5.88.441 7.56 1.323 1.68.882 3.234 2.331 4.662 4.347l46.872 64.512c2.1 3.444 5.376 5.166 9.828 5.166h21.672l-52.668-71.694c-2.352-3.36-5.04-5.922-8.064-7.686 6.972-1.596 13.209-3.948 18.711-7.056 5.502-3.108 10.164-6.867 13.986-11.277 3.822-4.41 6.741-9.387 8.757-14.931 2.016-5.544 3.024-11.508 3.024-17.892 0-7.644-1.302-14.553-3.906-20.727-2.604-6.174-6.615-11.445-12.033-15.813-5.418-4.368-12.285-7.707-20.601-10.017-8.316-2.31-18.186-3.465-29.61-3.465h-51.03V1543h24.318zm25.578-93.114h-25.578v-68.166h26.712c14.028 0 24.591 2.73 31.689 8.19 7.098 5.46 10.647 13.566 10.647 24.318 0 5.292-.924 10.122-2.772 14.49-1.848 4.368-4.599 8.127-8.253 11.277-3.654 3.15-8.19 5.586-13.608 7.308-5.418 1.722-11.697 2.583-18.837 2.583zM1529.20986 1543v-19.908h-86.688v-61.614h70.182v-19.152h-70.182v-59.976h86.688v-19.908h-111.258V1543h111.258zm298.27628 0v-19.908h-86.688v-61.614h70.182v-19.152h-70.182v-59.976h86.688v-19.908h-111.258V1543h111.258zm208.43829 0v-128.646c0-1.68-.042-3.528-.126-5.544-.084-2.016-.21-4.074-.378-6.174l104.454 135.954c1.26 1.596 2.541 2.73 3.843 3.402 1.302.672 2.919 1.008 4.851 1.008h12.348v-180.558h-21.42v127.89c0 1.932.042 3.927.126 5.985.084 2.058.252 4.179.504 6.363l-104.58-136.08c-1.344-1.68-2.541-2.793-3.591-3.339-1.05-.546-2.667-.819-4.851-.819h-12.6V1543h21.42z"/><g fill="#6DC612"><path d="M1733.48192 327.91595c34.87495 34.87495 34.87495 91.4184 0 126.29335l-22.51633 22.51637c-5.44235-11.92745-11.84944-23.52056-19.22144-34.66175l14.7206-14.7226c20.92496-20.92497 20.92496-54.85105 0-75.77602-20.71572-20.71571-54.17383-20.92287-75.1444-.62147l-.63161.62147-118.33381 118.3329-23.57494-23.57495 118.40858-118.4073c34.87495-34.87494 91.4184-34.87494 126.29335 0z"/><path d="M1646.50438 414.89349c66.4124 66.4124 85.2853 162.40503 56.68087 245.83067l-28.76957-28.76872c16.41874-66.59447-1.31574-139.79986-53.24456-191.72869-9.21056-9.21055-19.09046-17.34536-29.48411-24.40466l25.7235-25.72186c10.18804 7.358 19.92298 15.62237 29.09387 24.79326z"/><path d="M1639.82277 493.29856c6.73103 11.4304 12.24148 23.38304 16.5316 35.66974l-141.2657 141.26487-26.10062-26.10063zm47.5321 4.66842l-3.35628 3.35674a235.90437 235.90437 0 0 0-5.88515-12.60325l9.24143 9.2465z"/><path d="M1731.8518 841.47658c-34.87495 34.87495-91.4184 34.87495-126.29335 0l-22.51638-22.51633c11.92745-5.44235 23.52057-11.84944 34.66176-19.22144l14.7226 14.7206c20.92497 20.92496 54.85105 20.92496 75.77601 0 20.71572-20.71572 20.92288-54.17383.62148-75.1444l-.62148-.63161-118.33288-118.33381 23.57494-23.57494 118.4073 118.40858c34.87494 34.87495 34.87494 91.4184 0 126.29335z"/><path d="M1644.87426 754.49904c-66.4124 66.4124-162.40504 85.2853-245.83067 56.68087l28.76872-28.76957c66.59447 16.41874 139.79986-1.31574 191.72868-53.24456 9.21056-9.21056 17.34537-19.09046 24.40466-29.48411l25.72186 25.7235c-7.358 10.18804-15.62237 19.92298-24.79325 29.09387z"/><path d="M1566.47017 747.818c-11.4304 6.73103-23.38304 12.24147-35.66975 16.5316l-141.26487-141.2657 26.10063-26.10063zm-4.66842 47.5321l-3.35674-3.35629a235.90437 235.90437 0 0 0 12.60324-5.88515l-9.2465 9.24143z"/><g><path d="M1220.22128 839.80712c-34.87494-34.87494-34.87494-91.4184 0-126.29335l22.51633-22.51637c5.44235 11.92745 11.84944 23.52056 19.22145 34.66176l-14.7206 14.7226c-20.92497 20.92497-20.92497 54.85104 0 75.77601 20.71572 20.71572 54.17382 20.92287 75.14439.62147l.63162-.62147 118.3338-118.33289 23.57495 23.57494-118.40859 118.4073c-34.87494 34.87495-91.4184 34.87495-126.29335 0z"/><path d="M1307.19882 752.82958c-66.4124-66.4124-85.2853-162.40503-56.68087-245.83066l28.76957 28.76872c-16.41874 66.59446 1.31574 139.79985 53.24457 191.72868 9.21055 9.21055 19.09046 17.34536 29.4841 24.40466l-25.7235 25.72186c-10.18803-7.358-19.92298-15.62237-29.09387-24.79326z"/><path d="M1313.8781 674.42584c-6.73103-11.4304-12.24147-23.38303-16.5316-35.66974l141.2657-141.26487 26.10062 26.10063zm-47.5321-4.66842l3.35629-3.35674a235.90437 235.90437 0 0 0 5.88515 12.60325l-9.24144-9.2465z"/></g><g><path d="M1221.00669 325.40539c34.87494-34.87495 91.4184-34.87495 126.29335 0l22.51637 22.51632c-11.92745 5.44236-23.52057 11.84945-34.66176 19.22145l-14.7226-14.7206c-20.92497-20.92497-54.85104-20.92497-75.77601 0-20.71572 20.71572-20.92288 54.17382-.62147 75.14439l.62147.63162 118.33289 118.3338-23.57494 23.57495-118.4073-118.40858c-34.87495-34.87495-34.87495-91.4184 0-126.29335z"/><path d="M1307.98422 412.38293c66.4124-66.4124 162.40504-85.2853 245.83067-56.68087l-28.76872 28.76957c-66.59447-16.41875-139.79986 1.31574-191.72868 53.24456-9.21055 9.21055-17.34536 19.09046-24.40466 29.48411l-25.72186-25.72351c7.358-10.18803 15.62237-19.92298 24.79325-29.09386z"/><path d="M1386.3894 419.06406c11.4304-6.73103 23.38304-12.24147 35.66975-16.5316l141.26487 141.2657-26.10063 26.10062zm4.66842-47.5321l3.35674 3.35628a235.90437 235.90437 0 0 0-12.60324 5.88515l9.2465-9.24143z"/></g></g></g></svg>
