<svg id="Layer_1" data-name="Layer 1" xmlns="http://www.w3.org/2000/svg" viewBox="0 0 664 500"><defs><style>.cls-1{fill:#0e592f;}.cls-2{fill:#57ce68;}</style></defs><circle class="cls-1" cx="331.74027" cy="198.49807" r="191.49807"/><g id="sVBzdN"><path class="cls-2" d="M229.89736,219.58034c-22.03384-.376-39.40592-9.33006-51.71079-27.84325-1.42627-2.14588.27257-2.83072,1.18579-3.58262a64.56658,64.56658,0,0,1,18.71525-11.01179c11.15651-4.09769,22.62-5.5981,34.41865-3.094,2.24743.477,3.81119.03738,4.59788-2.7138a92.30559,92.30559,0,0,1,19.091-35.804,93.671,93.671,0,0,1,44.78852-28.97613c2.27995-.672,2.814-1.59977,2.55881-3.9-1.038-9.35454-1.2866-18.69454.98153-27.96711a77.98807,77.98807,0,0,1,17.78931-34.0469c1.88428-2.1087,3.123-2.24541,5.20326-.45272,13.25453,11.422,21.43164,25.571,23.588,43.06794a57.11007,57.11007,0,0,1-.50905,19.01221c-.52084,2.45054.17649,3.69845,2.74844,4.54526,26.96866,8.8796,46.289,26.23433,57.607,52.3774a66.36225,66.36225,0,0,1,4.42328,13.10792c.521,2.56535,2.06184,3.2946,4.51386,3.14321,10.46113-.646,20.83809-.03047,30.93107,2.96845,14.38177,4.27326,27.331,11.18776,38.31735,21.53363,3.47769,3.27494,3.56781,3.68129.42611,6.90865-11.53591,11.85031-25.414,18.9401-41.98993,20.67662a70.04728,70.04728,0,0,1-30.72934-3.6819c-2.134-.744-2.87581-.15076-3.5409,1.73478-7.065,20.03088-19.11958,36.22887-36.87835,48.09259a92.18956,92.18956,0,0,1-21.3346,10.61318c-2.63957.90665-3.59469,1.82381-2.72307,4.88314,6.77588,23.78267,1.129,44.52659-15.824,62.31406-5.28294,5.54295-5.987,5.5378-10.919-.09239a79.1454,79.1454,0,0,1-20.184-53.96733c.00214-1.15274.18-2.30543.28166-3.45766.73859-8.37593,1.87548-6.16821-5.64178-8.50421q-34.64316-10.76545-53.56071-41.54681a87.45017,87.45017,0,0,1-9.69017-22.50222c-.48756-1.74414-1.23187-2.56186-3.12618-2.18046A33.45946,33.45946,0,0,1,229.89736,219.58034Zm95.52291-68.90061a4.86876,4.86876,0,0,0-2.36175,1.92943,241.94952,241.94952,0,0,1-41.61931,40.06866c-4.29621,3.23079-4.31848,3.6651.12492,6.87379a207.65249,207.65249,0,0,1,42.29646,40.66327c2.41436,3.08964,2.9908,3.10035,5.3224-.09219a188.3578,188.3578,0,0,1,38.74039-39.36793c3.21277-2.34905,3.22125-3.03373.43457-5.4033-3.33975-2.83982-6.78024-5.56576-10.043-8.49063a199.96768,199.96768,0,0,1-30.58452-34.35032C327.16852,151.70682,326.74571,150.58677,325.42027,150.67973ZM307.09692,274.31566c2.738.76117,3.13571-.98206,3.73023-2.29565,2.09562-4.63026,3.93652-9.40652,6.7353-13.65974,1.86366-2.83215,1.81615-5.01113-.31528-7.76781-13.80294-17.85209-29.57675-33.57522-48.51638-46.00594a3.59054,3.59054,0,0,0-4.40068-.11373c-4.05859,2.431-8.162,4.7882-12.27177,7.13245-4.73785,2.70254-5.01756,3.47511-3.224,8.77233,5.75386,16.994,15.53051,31.06626,30.19432,41.57872A73.12974,73.12974,0,0,0,307.09692,274.31566Zm-59.237-96.71411c-.192,1.16406.81361,1.83706,2.021,2.46549,4.18985,2.18082,8.48863,4.197,12.47766,6.70288,2.549,1.60126,4.346,1.13087,6.534-.44966a254.947,254.947,0,0,0,21.19489-17.26511,224.51641,224.51641,0,0,0,26.49645-28.23248c1.4612-1.86059,1.67495-3.26066.27285-5.48907a106.78659,106.78659,0,0,1-5.91316-11.73742c-3.13894-6.70437-3.16331-6.75285-10.12155-4.31812-22.91953,8.01961-39.39186,23.04095-49.015,45.38355C250.08006,168.67121,248.33361,172.74108,247.85993,177.60155ZM347.91683,118.514c-1.67537-.29952-2.1879.89737-2.85627,2.02433-2.64617,4.46179-5.2431,8.95921-8.07893,13.29924-1.33216,2.03876-1.36653,3.52542.04591,5.60065a197.1722,197.1722,0,0,0,27.20883,32.13423,191.71534,191.71534,0,0,0,18.75477,15.87624c1.2205.8933,2.313,1.28794,3.79993.50267,4.79106-2.53017,9.61031-5.01156,14.48084-7.38417a2.664,2.664,0,0,0,1.61378-3.62322c-.96111-3.19333-1.74816-6.45048-2.90088-9.5728-7.019-19.01163-19.61093-33.23246-37.34087-42.925A69.75606,69.75606,0,0,0,347.91683,118.514Zm-12.38614,136.948a19.97007,19.97007,0,0,0,1.08336,2.472c2.32255,3.99083,4.90716,7.84437,6.99423,11.95217,1.65715,3.26165,3.61287,3.754,6.93254,2.53451,13.35237-4.90523,24.93165-12.29553,34.36873-23.0589a75.98316,75.98316,0,0,0,16.53584-29.68827c.61817-2.18808.07718-3.34237-1.94927-4.4186-4.0688-2.16091-8.04013-4.528-11.91724-7.01923-2.57872-1.657-4.60644-1.52775-7.14409.30815a191.15214,191.15214,0,0,0-43.74885,44.02038A4.71576,4.71576,0,0,0,335.53069,255.46207Zm109.67652-42.00534c6.41093.08309,15.46032-2.14477,24.25965-5.54433,2.64676-1.02254,2.78642-2.3308.57209-4.24508a19.845,19.845,0,0,0-2.26009-1.61381A71.87465,71.87465,0,0,0,427.79121,190.202c-9.29137.03739-18.09639,2.25609-26.65753,5.63546-2.94277,1.1616-3.04281,2.21772-.612,4.31619a13.86479,13.86479,0,0,0,1.38185,1.04558C414.08085,209.296,427.472,213.41466,445.20721,213.45673Zm-126.9739,86.74821a61.23,61.23,0,0,0,9.813,33.6914c2.32584,3.54631,3.3956,3.56616,5.24639-.2216,10.58708-21.6671,9.22185-42.84016-2.88217-63.4725-2.07093-3.53008-3.06976-3.44237-5.01916.34795C320.55916,279.94554,317.79433,289.86284,318.23331,300.20494ZM315.42854,89.72583A59.59247,59.59247,0,0,0,324.94286,120.59c.7886,1.19649,1.2554,3.22257,2.9846,2.9544,1.44325-.22382,2.15893-1.95276,2.808-3.31422a70.812,70.812,0,0,0,6.05462-17.999,60.5465,60.5465,0,0,0-8.59064-44.151c-1.95093-3.12551-2.94989-3.072-4.7047.23359A64.98476,64.98476,0,0,0,315.42854,89.72583ZM225.684,205.60439a47.7195,47.7195,0,0,0,24.80671-7.12095c3.44821-2.03326,3.31886-3.19128-.18262-5.15243a60.81472,60.81472,0,0,0-16.83881-6.25647c-11.92278-2.61474-23.20668-.436-34.02853,4.72477-4.01553,1.91493-4.06064,2.74808-.57042,5.33445A43.52028,43.52028,0,0,0,225.684,205.60439Z"/></g><path class="cls-1" d="M7.651,465.07506v-.16133c0-15.989,12.05262-29.08626,29.32759-29.08626,10.606,0,16.95366,3.53579,22.17668,8.67815l-7.87419,9.07879c-4.33908-3.93643-8.75815-6.34695-14.38248-6.34695-9.48144,0-16.311,7.8742-16.311,17.51494v.16133c0,9.6421,6.66894,17.67628,16.311,17.67628,6.42761,0,10.36471-2.57051,14.78378-6.5876l7.8742,7.95352C53.77163,490.14289,47.344,494,36.49666,494,19.94431,494,7.651,481.22409,7.651,465.07506Z"/><path class="cls-1" d="M73.38117,465.07506v-.16133c0-15.989,12.61525-29.08626,29.97021-29.08626,17.35564,0,29.80956,12.93589,29.80956,28.92493v.16133c0,15.98905-12.61458,29.08627-29.97022,29.08627S73.38117,481.06411,73.38117,465.07506Zm46.84388,0v-.16133c0-9.64209-7.07092-17.67627-17.03433-17.67627s-16.873,7.8742-16.873,17.51494v.16133c0,9.6421,7.07024,17.67628,17.03365,17.67628S120.22505,474.71581,120.22505,465.07506Z"/><path class="cls-1" d="M143.77168,436.79141h13.65918l14.70379,39.613,14.70447-39.613H200.177L177.43767,493.438H166.51032Z"/><path class="cls-1" d="M217.45666,436.79141h12.37393v56.24465H217.45666Z"/><path class="cls-1" d="M251.9293,436.79141h21.93536c17.67695,0,29.88955,12.13328,29.88955,27.961v.16133c0,15.82906-12.2126,28.12233-29.88955,28.12233H251.9293Zm21.93536,45.07665c10.12406,0,16.95366-6.83093,16.95366-16.793v-.16133c0-9.9634-6.8296-16.95433-16.95366-16.95433h-9.5621v33.90866Z"/><path class="cls-1" d="M342.45136,465.07506v-.16133c0-15.989,12.45459-29.08626,29.48824-29.08626,10.12407,0,16.23037,2.73183,22.096,7.71287l-7.79354,9.40144c-4.33907-3.61511-8.19618-5.70432-14.70446-5.70432-8.99879,0-16.1497,7.95352-16.1497,17.51494v.16133c0,10.28472,7.07024,17.83761,17.03365,17.83761a19.74636,19.74636,0,0,0,11.65064-3.37447v-8.03552H371.61829v-10.6867h24.42587V485.0812A36.50291,36.50291,0,0,1,372.02027,494C354.504,494,342.45136,481.70673,342.45136,465.07506Z"/><path class="cls-1" d="M415.975,436.79141h25.7118c7.15091,0,12.69525,2.00854,16.391,5.70432,3.13381,3.13382,4.821,7.55288,4.821,12.85657v.16c0,9.08013-4.90171,14.78445-12.05261,17.437l13.73985,20.0868H450.123l-12.05261-17.99893h-9.72142v17.99893H415.975Zm24.90785,27.31837c6.027,0,9.48076-3.21314,9.48076-7.95352v-.16133c0-5.30234-3.69577-8.03553-9.72141-8.03553H428.34894v16.15038Z"/><path class="cls-1" d="M482.10644,436.79141h42.42548v11.008H494.39971v11.41h26.51575v11.008H494.39971v11.81063h30.53285v11.008H482.10644Z"/><path class="cls-1" d="M543.97878,436.79141h42.42549v11.008H556.27205v11.41h26.51576v11.008H556.27205v11.81063H586.8049v11.008H543.97878Z"/><path class="cls-1" d="M605.85113,436.79141h11.41l26.35443,34.6306v-34.6306h12.21394v56.24465H645.30278l-27.23771-35.75587v35.75587H605.85113Z"/></svg>